<svg xmlns="http://www.w3.org/2000/svg" version="1.0" width="675.000000pt" height="675.000000pt" viewBox="0 0 675.000000 675.000000" preserveAspectRatio="xMidYMid meet">
<metadata fill="#f21605">
Created by potrace 1.10, written by Peter Selinger 2001-2011
</metadata>
<g transform="translate(0.000000,675.000000) scale(0.100000,-0.100000)" fill="#fefffb" stroke="none">
<path d="M3260 6148 c-85 -4 -189 -13 -230 -18 -41 -6 -107 -14 -146 -19 -40 -5 -81 -14 -92 -20 -12 -6 -36 -11 -54 -11 -18 -1 -44 -7 -58 -15 -14 -8 -38 -15 -55 -15 -16 0 -41 -7 -55 -15 -14 -8 -37 -14 -51 -15 -14 0 -34 -7 -45 -15 -10 -8 -31 -15 -45 -15 -15 0 -32 -7 -39 -15 -7 -8 -21 -15 -32 -15 -11 0 -32 -6 -46 -13 -15 -8 -42 -21 -60 -30 -19 -9 -39 -17 -47 -17 -7 0 -18 -7 -25 -15 -7 -8 -20 -15 -30 -15 -10 0 -23 -7 -30 -15 -7 -8 -20 -15 -30 -15 -10 0 -23 -7 -30 -15 -7 -8 -18 -15 -26 -15 -7 0 -32 -13 -56 -28 -24 -16 -59 -38 -78 -48 -31 -17 -106 -68 -137 -94 -7 -6 -34 -25 -60 -42 -27 -18 -59 -42 -73 -54 -14 -12 -61 -53 -105 -91 -121 -105 -220 -206 -300 -308 -22 -27 -45 -54 -51 -60 -6 -5 -26 -32 -44 -60 -18 -27 -39 -54 -46 -58 -8 -4 -14 -13 -14 -19 0 -5 -12 -27 -27 -47 -16 -20 -37 -52 -47 -71 -10 -19 -32 -54 -48 -78 -15 -24 -28 -49 -28 -56 0 -8 -7 -19 -15 -26 -8 -7 -15 -20 -15 -30 0 -10 -7 -23 -15 -30 -8 -7 -15 -20 -15 -30 0 -10 -7 -23 -15 -30 -8 -7 -15 -18 -15 -25 0 -8 -8 -28 -17 -47 -9 -18 -22 -45 -30 -60 -7 -14 -13 -34 -13 -43 0 -9 -7 -23 -15 -31 -8 -9 -15 -27 -15 -42 0 -15 -7 -36 -15 -46 -8 -11 -15 -31 -15 -45 0 -14 -7 -35 -15 -45 -8 -11 -15 -32 -15 -47 0 -14 -7 -43 -15 -62 -8 -20 -15 -49 -15 -64 0 -15 -7 -46 -15 -68 -8 -22 -14 -59 -15 -82 0 -23 -5 -54 -11 -70 -11 -28 -33 -307 -33 -418 0 -110 22 -400 33 -428 6 -16 11 -47 11 -70 1 -23 7 -60 15 -82 8 -22 15 -53 15 -68 0 -15 7 -44 15 -64 8 -19 15 -48 15 -62 0 -15 7 -36 15 -47 8 -10 15 -31 15 -45 0 -14 7 -34 15 -45 8 -10 15 -31 15 -46 0 -15 7 -33 15 -42 8 -8 15 -22 15 -31 0 -9 6 -29 13 -43 8 -15 21 -42 30 -60 9 -19 17 -39 17 -47 0 -7 7 -18 15 -25 8 -7 15 -20 15 -30 0 -10 7 -23 15 -30 8 -7 15 -20 15 -30 0 -10 7 -23 15 -30 8 -7 15 -18 15 -26 0 -7 13 -32 28 -56 16 -24 38 -59 48 -78 10 -19 31 -51 47 -71 15 -20 27 -41 27 -45 0 -5 14 -22 30 -38 16 -16 32 -37 35 -47 4 -11 11 -19 16 -19 5 0 9 -7 9 -15 0 -7 6 -18 12 -22 7 -4 31 -30 53 -58 87 -110 196 -220 325 -329 47 -39 90 -75 96 -81 6 -5 22 -17 34 -25 12 -8 34 -24 49 -35 14 -11 31 -23 36 -27 61 -46 106 -78 110 -78 3 0 35 -18 71 -41 37 -22 77 -45 88 -50 12 -5 29 -13 39 -19 9 -5 25 -15 35 -20 9 -6 23 -12 30 -15 6 -3 18 -7 25 -10 6 -3 19 -9 27 -14 8 -5 33 -17 55 -26 22 -10 52 -24 67 -32 14 -7 34 -13 45 -13 10 0 27 -7 37 -15 11 -8 29 -15 40 -15 12 0 30 -7 40 -15 11 -8 32 -15 47 -15 15 0 40 -7 55 -15 16 -8 39 -15 50 -15 12 0 38 -7 57 -15 20 -8 51 -15 70 -15 18 0 38 -5 44 -11 6 -6 44 -14 84 -19 41 -5 99 -14 129 -20 73 -15 655 -16 730 -1 30 6 87 15 127 21 40 5 81 14 92 19 11 6 34 11 51 11 17 0 47 7 67 15 19 8 45 15 57 15 11 0 34 7 50 15 15 8 38 15 50 15 12 0 31 7 42 15 10 8 31 15 45 15 14 0 34 7 45 15 10 8 25 15 32 15 8 0 30 7 50 16 62 27 307 147 312 153 3 3 26 17 53 31 26 13 47 28 47 32 0 5 6 8 13 8 7 0 22 7 32 15 11 8 67 49 125 91 296 217 536 475 727 779 7 11 16 28 19 38 3 9 10 17 14 17 5 0 12 10 16 23 4 12 10 24 13 27 12 8 111 211 111 226 0 8 4 14 9 14 5 0 12 10 16 23 9 32 35 98 51 129 8 14 14 37 14 50 0 12 7 32 15 42 8 11 15 30 15 42 0 12 7 35 15 50 8 16 15 43 15 61 0 17 4 34 9 38 6 3 13 27 16 53 3 26 11 58 17 72 5 14 14 57 18 95 5 39 14 95 20 125 15 74 15 646 0 720 -6 30 -15 84 -19 120 -4 36 -13 81 -19 100 -10 33 -19 72 -43 180 -5 24 -14 49 -19 54 -6 6 -10 22 -10 36 0 14 -7 35 -15 46 -8 10 -15 30 -15 42 0 13 -6 36 -14 50 -16 31 -42 97 -51 130 -4 12 -11 22 -16 22 -5 0 -9 6 -9 14 0 17 -101 220 -112 224 -4 2 -8 9 -8 16 0 7 -13 32 -30 54 -16 23 -30 45 -30 50 0 4 -7 17 -15 27 -8 11 -49 67 -91 124 -188 256 -360 429 -614 615 -58 42 -114 83 -125 91 -10 8 -23 15 -27 15 -5 0 -27 14 -50 30 -22 17 -47 30 -55 30 -7 0 -13 4 -13 9 0 5 -12 14 -27 20 -16 6 -36 15 -45 21 -46 26 -54 31 -68 36 -8 3 -42 19 -75 34 -98 46 -132 60 -148 60 -8 0 -20 7 -27 15 -7 8 -24 15 -39 15 -14 0 -35 7 -45 15 -11 8 -32 15 -47 15 -15 0 -40 7 -55 15 -16 8 -39 15 -50 15 -12 0 -38 7 -57 15 -20 8 -51 15 -70 15 -18 0 -38 5 -44 11 -5 5 -46 14 -90 18 -44 5 -85 11 -91 15 -6 4 -85 11 -175 16 -91 5 -171 11 -178 13 -8 2 -84 0 -169 -5z m1843 -1943 c20 -8 48 -15 61 -15 14 0 42 -7 63 -16 21 -9 54 -24 73 -32 19 -8 42 -19 50 -24 8 -5 23 -11 33 -14 9 -4 17 -10 17 -14 0 -5 9 -12 20 -15 35 -11 194 -177 232 -243 61 -102 59 -106 -52 -162 -200 -101 -348 -170 -367 -170 -11 0 -25 14 -37 38 -10 20 -28 57 -40 81 -20 42 -100 121 -122 121 -6 0 -25 7 -43 16 -37 19 -153 15 -215 -7 -82 -29 -176 -156 -198 -269 -24 -118 -31 -232 -20 -308 24 -156 26 -166 64 -232 4 -8 12 -24 17 -36 14 -31 65 -79 111 -103 34 -18 58 -21 155 -21 88 0 117 3 129 15 8 8 20 15 27 15 20 0 82 71 109 124 29 57 61 70 102 42 12 -9 34 -16 49 -16 15 0 32 -7 39 -15 7 -8 24 -15 39 -15 14 0 35 -7 45 -15 11 -8 27 -15 37 -15 9 0 30 -7 45 -15 16 -8 38 -15 49 -15 11 0 29 -7 39 -15 11 -8 30 -15 41 -15 12 0 30 -8 39 -19 14 -16 15 -22 4 -47 -7 -16 -18 -35 -25 -42 -7 -7 -13 -20 -13 -28 0 -8 -3 -14 -8 -14 -4 0 -15 -15 -25 -33 -29 -53 -185 -207 -210 -207 -3 0 -26 -13 -50 -30 -25 -16 -48 -30 -52 -30 -4 0 -21 -6 -38 -14 -92 -41 -269 -76 -382 -76 -79 0 -208 20 -305 48 -47 13 -131 50 -227 101 -36 19 -220 202 -233 232 -6 13 -28 58 -50 99 -22 41 -40 81 -40 90 0 8 -7 28 -15 44 -8 15 -15 41 -15 57 0 17 -7 46 -15 66 -19 45 -22 395 -4 440 7 15 15 48 19 73 22 133 131 329 239 428 58 54 144 119 169 126 12 4 22 12 22 17 0 5 8 9 18 9 10 0 27 7 38 15 10 8 26 15 34 15 8 0 28 7 44 15 15 8 42 15 60 15 17 1 45 7 61 15 45 20 360 20 408 0z m-3373 -609 c0 -512 2 -601 16 -647 32 -111 65 -150 142 -171 95 -26 221 -17 282 20 40 24 70 56 70 73 0 9 7 30 15 45 13 25 15 119 15 652 l0 622 285 0 285 0 -3 -667 c-4 -689 -7 -739 -47 -828 -37 -84 -47 -103 -75 -141 -16 -23 -51 -57 -78 -75 -26 -19 -53 -38 -60 -44 -12 -10 -53 -30 -120 -58 -46 -20 -112 -37 -185 -47 -35 -5 -80 -14 -100 -20 -48 -13 -274 -13 -332 1 -25 6 -72 14 -105 19 -97 14 -145 29 -252 78 -72 33 -185 125 -204 167 -5 11 -21 40 -34 64 -14 24 -25 48 -25 52 0 4 -5 20 -12 36 -34 81 -40 193 -45 817 -2 341 -1 626 1 633 4 10 63 13 286 13 l280 0 0 -594z m1998 -320 c2 -835 1 -911 -14 -928 -16 -17 -38 -18 -275 -18 -245 0 -259 1 -269 19 -11 22 -15 1823 -3 1834 4 4 131 6 282 5 l276 -3 3 -909z" fill="#f21605"/>
</g>
</svg>