<?xml version="1.0" encoding="utf-8"?>
<!-- Generator: Adobe Illustrator 27.5.0, SVG Export Plug-In . SVG Version: 6.00 Build 0)  -->
<svg version="1.1" xmlns="http://www.w3.org/2000/svg" xmlns:xlink="http://www.w3.org/1999/xlink" x="0px" y="0px"
	 viewBox="0 0 500 500" style="enable-background:new 0 0 500 500;" xml:space="preserve">
<g id="BACKGROUND">
	<circle style="fill:#698ACC;" cx="250" cy="248" r="183.354"/>
</g>
<g id="OBJECTS">
	<g>
		<g>
			
				<polygon style="fill:#FFFFFF;stroke:#698ACC;stroke-width:2;stroke-linecap:round;stroke-linejoin:round;stroke-miterlimit:10;" points="
				76.18,384.791 156.75,357.728 119.556,246.992 57.259,267.916 45.668,293.949 			"/>
			<polygon style="fill:#698ACC;" points="57.259,267.916 63.942,287.811 45.668,293.949 			"/>
			<polygon style="opacity:0.3;fill:#99B5C6;" points="57.259,267.916 63.942,287.811 45.668,293.949 66.712,289.538 			"/>
			
				<rect x="100.459" y="280.988" transform="matrix(0.948 -0.3184 0.3184 0.948 -84.1894 50.3613)" style="opacity:0.5;fill:#C1C1C1;" width="23" height="3.45"/>
			
				<rect x="87.041" y="288.767" transform="matrix(0.948 -0.3184 0.3184 0.948 -86.6901 48.8873)" style="opacity:0.5;fill:#C1C1C1;" width="38.321" height="1.724"/>
			
				<rect x="108.068" y="351.697" transform="matrix(0.948 -0.3184 0.3184 0.948 -105.6392 58.8625)" style="opacity:0.5;fill:#C1C1C1;" width="38.321" height="1.725"/>
			
				<rect x="125.116" y="352.073" transform="matrix(0.9479 -0.3185 0.3185 0.9479 -105.3112 61.6975)" style="opacity:0.5;fill:#C1C1C1;" width="21.851" height="1.725"/>
			
				<rect x="62.336" y="306.336" transform="matrix(0.948 -0.3184 0.3184 0.948 -93.0113 46.7348)" style="opacity:0.5;fill:#C1C1C1;" width="68.222" height="3.071"/>
			
				<rect x="64.325" y="312.257" transform="matrix(0.948 -0.3184 0.3184 0.948 -94.7911 47.6748)" style="opacity:0.5;fill:#C1C1C1;" width="68.222" height="3.071"/>
			
				<rect x="66.314" y="318.177" transform="matrix(0.948 -0.3184 0.3184 0.948 -96.5712 48.615)" style="opacity:0.5;fill:#C1C1C1;" width="68.222" height="3.071"/>
			
				<rect x="68.303" y="324.099" transform="matrix(0.9479 -0.3184 0.3184 0.9479 -98.3591 49.5609)" style="opacity:0.5;fill:#C1C1C1;" width="68.222" height="3.071"/>
			
				<rect x="70.291" y="330.019" transform="matrix(0.948 -0.3184 0.3184 0.948 -100.1316 50.4955)" style="opacity:0.5;fill:#C1C1C1;" width="68.222" height="3.071"/>
			
				<rect x="72.279" y="335.94" transform="matrix(0.948 -0.3184 0.3184 0.948 -101.9163 51.439)" style="opacity:0.5;fill:#C1C1C1;" width="68.222" height="3.07"/>
			
				<rect x="74.268" y="341.86" transform="matrix(0.948 -0.3184 0.3184 0.948 -103.6933 52.3771)" style="opacity:0.5;fill:#C1C1C1;" width="68.222" height="3.071"/>
			
				<rect x="76.257" y="347.78" transform="matrix(0.948 -0.3184 0.3184 0.948 -105.4796 53.3217)" style="opacity:0.5;fill:#C1C1C1;" width="68.222" height="3.071"/>
			
				<rect x="87.995" y="291.609" transform="matrix(0.948 -0.3184 0.3184 0.948 -87.5399 49.3347)" style="opacity:0.5;fill:#C1C1C1;" width="38.321" height="1.725"/>
			
				<rect x="88.95" y="294.452" transform="matrix(0.948 -0.3184 0.3184 0.948 -88.4001 49.7905)" style="opacity:0.5;fill:#C1C1C1;" width="38.321" height="1.725"/>
		</g>
		<g>
			<g>
				<path style="fill:#FFFFFF;" d="M400.994,329.599c-0.431-0.005-0.811-0.285-0.941-0.695l-3.723-11.65
					c-4.635-0.378-8.291-4.271-8.291-9.001v-33.935c0-4.98,4.052-9.031,9.031-9.031h55.284c4.98,0,9.03,4.052,9.03,9.031v33.935
					c0,4.979-4.051,9.031-9.03,9.031h-46.405l-3.999,11.641c-0.139,0.404-0.519,0.675-0.945,0.675
					C401.001,329.599,400.998,329.599,400.994,329.599z"/>
				<path style="fill:#698ACC;" d="M452.354,266.286c4.435,0,8.031,3.596,8.031,8.031v33.934c0,4.435-3.596,8.031-8.031,8.031
					h-47.119l-4.231,12.316l-3.934-12.316c-4.435,0-8.031-3.595-8.031-8.031v-33.934c0-4.435,3.596-8.031,8.031-8.031H452.354
					 M452.354,264.286H397.07c-5.531,0-10.031,4.5-10.031,10.031v33.934c0,5.023,3.711,9.195,8.535,9.92l3.525,11.036
					c0.262,0.821,1.021,1.382,1.883,1.391c0.007,0,0.015,0,0.022,0c0.853,0,1.614-0.542,1.891-1.35l3.767-10.965h45.691
					c5.531,0,10.031-4.5,10.031-10.031v-33.934C462.385,268.786,457.885,264.286,452.354,264.286L452.354,264.286z"/>
			</g>
			<g>
				<path style="fill:#698ACC;" d="M409.409,290.477c0,2.366,1.918,4.283,4.283,4.283s4.283-1.918,4.283-4.283
					c0-2.365-1.918-4.283-4.283-4.283S409.409,288.111,409.409,290.477z"/>
				<path style="fill:#698ACC;" d="M421.038,290.477c0,2.366,1.918,4.283,4.283,4.283s4.283-1.918,4.283-4.283
					c0-2.365-1.918-4.283-4.283-4.283S421.038,288.111,421.038,290.477z"/>
				<path style="fill:#698ACC;" d="M432.667,290.477c0,2.366,1.918,4.283,4.283,4.283c2.366,0,4.283-1.918,4.283-4.283
					c0-2.365-1.918-4.283-4.283-4.283C434.584,286.194,432.667,288.111,432.667,290.477z"/>
			</g>
		</g>
		<g>
			<path style="fill:#FFFFFF;stroke:#698ACC;stroke-width:2;stroke-linecap:round;stroke-linejoin:round;stroke-miterlimit:10;" d="
				M416.609,123.042c0-8.996-7.293-16.288-16.288-16.288c-3.575,0-6.87,1.165-9.556,3.117c0.003-0.16,0.012-0.318,0.012-0.479
				c0-16.534-13.404-29.938-29.938-29.938c-15.083,0-27.555,11.156-29.629,25.665c-3.535-3.307-8.271-5.347-13.495-5.347
				c-10.923,0-19.779,8.855-19.779,19.779c0,10.662,8.442,19.329,19.003,19.739v0.039h83.962v-0.029
				C409.627,138.992,416.609,131.841,416.609,123.042z"/>
			<path style="fill:#FFFFFF;stroke:#698ACC;stroke-width:2;stroke-linecap:round;stroke-linejoin:round;stroke-miterlimit:10;" d="
				M455.37,175.323c0-5.053-4.097-9.15-9.15-9.15c-2.008,0-3.859,0.654-5.368,1.751c0.001-0.09,0.007-0.179,0.007-0.269
				c0-9.288-7.529-16.818-16.818-16.818c-8.473,0-15.479,6.267-16.644,14.417c-1.986-1.858-4.647-3.003-7.581-3.003
				c-6.136,0-11.111,4.975-11.111,11.111c0,5.989,4.742,10.858,10.675,11.089v0.022h47.166v-0.017
				C451.448,184.283,455.37,180.266,455.37,175.323z"/>
		</g>
		<g>
			<g>
				<path style="fill:#FFFFFF;" d="M88.244,140.132c-1.352,0-2.452-1.1-2.452-2.452v-8.825c0-1.352,1.1-2.452,2.452-2.452h112.583
					c1.352,0,2.452,1.1,2.452,2.452v8.825c0,1.352-1.1,2.452-2.452,2.452H88.244z"/>
				<path style="fill:#698ACC;" d="M200.828,127.403c0.802,0,1.452,0.65,1.452,1.452v8.825c0,0.802-0.65,1.452-1.452,1.452H88.244
					c-0.802,0-1.452-0.65-1.452-1.452v-8.825c0-0.802,0.65-1.452,1.452-1.452H200.828 M200.828,125.403H88.244
					c-1.904,0-3.452,1.549-3.452,3.452v8.825c0,1.904,1.549,3.452,3.452,3.452h112.584c1.904,0,3.452-1.549,3.452-3.452v-8.825
					C204.28,126.951,202.731,125.403,200.828,125.403L200.828,125.403z"/>
			</g>
			<g>
				<path style="fill:#FFFFFF;" d="M88.244,122.604c-1.352,0-2.452-1.1-2.452-2.452v-8.825c0-1.352,1.1-2.452,2.452-2.452h112.583
					c1.352,0,2.452,1.1,2.452,2.452v8.825c0,1.352-1.1,2.452-2.452,2.452H88.244z"/>
				<path style="fill:#698ACC;" d="M200.828,109.875c0.802,0,1.452,0.65,1.452,1.452v8.825c0,0.802-0.65,1.452-1.452,1.452H88.244
					c-0.802,0-1.452-0.65-1.452-1.452v-8.825c0-0.802,0.65-1.452,1.452-1.452H200.828 M200.828,107.875H88.244
					c-1.904,0-3.452,1.549-3.452,3.452v8.825c0,1.904,1.549,3.452,3.452,3.452h112.584c1.904,0,3.452-1.549,3.452-3.452v-8.825
					C204.28,109.424,202.731,107.875,200.828,107.875L200.828,107.875z"/>
			</g>
			<g>
				<path style="fill:#FFFFFF;" d="M88.244,105.077c-1.352,0-2.452-1.1-2.452-2.452V93.8c0-1.352,1.1-2.452,2.452-2.452h112.583
					c1.352,0,2.452,1.1,2.452,2.452v8.825c0,1.352-1.1,2.452-2.452,2.452H88.244z"/>
				<path style="fill:#698ACC;" d="M200.828,92.348c0.802,0,1.452,0.65,1.452,1.452v8.825c0,0.802-0.65,1.452-1.452,1.452H88.244
					c-0.802,0-1.452-0.65-1.452-1.452V93.8c0-0.802,0.65-1.452,1.452-1.452H200.828 M200.828,90.348H88.244
					c-1.904,0-3.452,1.549-3.452,3.452v8.825c0,1.903,1.549,3.452,3.452,3.452h112.584c1.904,0,3.452-1.549,3.452-3.452V93.8
					C204.28,91.896,202.731,90.348,200.828,90.348L200.828,90.348z"/>
			</g>
			<path style="fill:#698ACC;" d="M93.777,100.783h-2.53c-0.721,0-1.306-0.585-1.306-1.306v-2.529c0-0.721,0.585-1.306,1.306-1.306
				h2.53c0.721,0,1.306,0.585,1.306,1.306v2.529C95.083,100.198,94.498,100.783,93.777,100.783z"/>
			<path style="fill:#698ACC;" d="M93.777,118.311h-2.53c-0.721,0-1.306-0.585-1.306-1.306v-2.53c0-0.721,0.585-1.306,1.306-1.306
				h2.53c0.721,0,1.306,0.585,1.306,1.306v2.53C95.083,117.726,94.498,118.311,93.777,118.311z"/>
			<path style="fill:#698ACC;" d="M93.777,135.838h-2.53c-0.721,0-1.306-0.585-1.306-1.306v-2.53c0-0.721,0.585-1.306,1.306-1.306
				h2.53c0.721,0,1.306,0.585,1.306,1.306v2.53C95.083,135.253,94.498,135.838,93.777,135.838z"/>
		</g>
		<g>
			<g>
				<path style="fill:#FFFFFF;" d="M333.819,447.82c-0.104,0-0.208-0.017-0.309-0.049l-94.346-30.59
					c-0.525-0.17-0.813-0.734-0.643-1.26l10.776-33.235c0.082-0.252,0.26-0.462,0.497-0.582c0.142-0.072,0.298-0.109,0.455-0.109
					c0.104,0,0.208,0.017,0.309,0.049l94.345,30.591c0.525,0.17,0.814,0.734,0.643,1.26l-10.775,33.234
					c-0.082,0.252-0.261,0.462-0.497,0.582C334.132,447.783,333.976,447.82,333.819,447.82z"/>
				<path style="fill:#698ACC;" d="M250.25,382.996l94.345,30.59l-10.776,33.235l-94.346-30.59L250.25,382.996 M250.25,380.996
					c-0.313,0-0.625,0.073-0.909,0.218c-0.473,0.241-0.83,0.66-0.993,1.165l-10.776,33.235c-0.164,0.505-0.12,1.053,0.121,1.526
					c0.241,0.473,0.66,0.83,1.165,0.993l94.346,30.59c0.201,0.065,0.409,0.098,0.617,0.098c0.313,0,0.625-0.074,0.909-0.219
					c0.473-0.241,0.83-0.66,0.993-1.165l10.776-33.235c0.341-1.051-0.235-2.179-1.286-2.519l-94.345-30.591
					C250.665,381.028,250.457,380.996,250.25,380.996L250.25,380.996z"/>
			</g>
			<g>
				<path style="fill:#FFFFFF;" d="M333.819,447.82c-0.321,0-0.626-0.154-0.815-0.421l-35.345-49.795l-57.854,19.537
					c-0.105,0.035-0.212,0.053-0.32,0.053c-0.259,0-0.513-0.1-0.703-0.289c-0.269-0.266-0.365-0.66-0.248-1.02l18.835-58.015
					c0.082-0.253,0.261-0.462,0.497-0.582c0.142-0.072,0.298-0.109,0.454-0.109c0.103,0,0.208,0.017,0.309,0.049l94.334,30.627
					c0.525,0.171,0.814,0.734,0.643,1.26l-18.835,58.014c-0.117,0.359-0.427,0.623-0.8,0.68
					C333.92,447.816,333.869,447.82,333.819,447.82z"/>
				<path style="fill:#698ACC;" d="M258.32,358.18l94.334,30.627l-18.835,58.014l-35.775-50.402l-58.559,19.775L258.32,358.18
					 M258.32,356.18c-0.313,0-0.624,0.073-0.909,0.218c-0.472,0.241-0.83,0.66-0.994,1.164l-18.835,58.014
					c-0.234,0.719-0.041,1.509,0.496,2.04c0.38,0.376,0.888,0.577,1.406,0.577c0.214,0,0.43-0.034,0.64-0.105l57.149-19.299
					l34.914,49.188c0.379,0.533,0.989,0.842,1.631,0.842c0.1,0,0.201-0.008,0.302-0.023c0.748-0.114,1.367-0.64,1.6-1.359
					l18.835-58.014c0.164-0.504,0.121-1.053-0.12-1.526c-0.241-0.473-0.66-0.83-1.164-0.994l-94.334-30.627
					C258.737,356.212,258.528,356.18,258.32,356.18L258.32,356.18z"/>
			</g>
			<g>
				<path style="fill:#FFFFFF;" d="M303.961,415.102c-0.602,0-1.166-0.081-1.633-0.232l-19.12-6.208
					c-1.318-0.428-2.762-1.694-3.357-2.944l-21.583-45.305c-0.486-1.019-0.232-1.688-0.038-1.995
					c0.29-0.461,0.807-0.726,1.417-0.726c0.271,0,0.565,0.051,0.874,0.151l90.528,29.393c1.276,0.414,1.483,1.24,1.514,1.576
					c0.029,0.336-0.029,1.186-1.213,1.817l-44.575,23.845C306.029,414.872,305.004,415.102,303.961,415.102z"/>
				<path style="fill:#698ACC;" d="M259.646,358.692c0.162,0,0.352,0.033,0.566,0.102l90.529,29.392
					c1.046,0.34,1.109,1.042,0.139,1.561l-44.577,23.845c-0.616,0.329-1.506,0.509-2.342,0.509c-0.48,0-0.942-0.059-1.324-0.183
					l-19.12-6.208c-1.046-0.34-2.289-1.43-2.762-2.423l-21.584-45.305C258.793,359.192,259.013,358.692,259.646,358.692
					 M259.646,356.692L259.646,356.692c-0.96,0-1.785,0.434-2.263,1.191c-0.304,0.482-0.711,1.507-0.02,2.96l21.584,45.305
					c0.713,1.496,2.374,2.953,3.95,3.465l19.12,6.208c0.574,0.186,1.227,0.281,1.941,0.281c1.202,0,2.4-0.272,3.285-0.745
					l44.577-23.845c1.709-0.914,1.783-2.254,1.736-2.788c-0.047-0.534-0.357-1.84-2.2-2.439l-90.529-29.392
					C260.421,356.759,260.023,356.692,259.646,356.692L259.646,356.692z"/>
			</g>
		</g>
	</g>
	<g>
		<ellipse style="opacity:0.3;fill:#99B5C6;" cx="249.719" cy="365.941" rx="94.73" ry="9.928"/>
		<path style="opacity:0.3;fill:#99B5C6;" d="M126.511,263.11l-5.882,60.901c-0.395,4.092,3.247,7.418,7.287,6.654l20.034-3.79
			l-17.901-4.678L126.511,263.11z"/>
		<g>
			<g>
				<rect x="206.801" y="322.197" style="fill:#FFFFFF;" width="85.836" height="39.617"/>
				<path style="fill:#FFFFFF;" d="M318.774,365.116c0,0.908-0.743,1.651-1.65,1.651H182.316c-0.908,0-1.651-0.743-1.651-1.651
					v-6.603c0-0.907,0.743-1.65,1.651-1.65h134.808c0.907,0,1.65,0.743,1.65,1.65V365.116z"/>
				<g>
					<path style="fill:#FFFFFF;" d="M372.928,322.875c0,2.2-1.8,4-4,4H130.511c-2.2,0-4-1.8-4-4V164.154c0-2.2,1.8-4,4-4h238.418
						c2.2,0,4,1.8,4,4V322.875z"/>
				</g>
				<rect x="206.394" y="326.875" style="opacity:0.3;fill:#99B5C6;" width="86.243" height="6.571"/>
				<rect x="206.394" y="355.164" style="opacity:0.3;fill:#99B5C6;" width="86.243" height="1.698"/>
				<rect x="131.144" y="165.106" style="fill:#0A1D35;" width="237.151" height="147.189"/>
				<rect x="131.144" y="165.106" style="opacity:0.5;fill:#9ABAD8;" width="237.258" height="2.666"/>
			</g>
			<path style="opacity:0.3;fill:#99B5C6;" d="M317.174,366.767H182.196c-0.846,0-1.532-0.686-1.532-1.532v-0.119h138.11v0.051
				C318.774,366.051,318.058,366.767,317.174,366.767z"/>
			<path style="fill:#0A1D35;" d="M252.402,319.516c0,1.481-1.201,2.682-2.683,2.682c-1.481,0-2.683-1.201-2.683-2.682
				c0-1.482,1.202-2.682,2.683-2.682C251.201,316.833,252.402,318.034,252.402,319.516z"/>
		</g>
		<g>
			<g>
				<path style="fill:#FFFFFF;" d="M299.014,290.301l3.519-0.69l-0.005-7.191l-3.5-0.764c-0.319-1.118-0.759-2.174-1.309-3.176
					l1.997-2.977l-5.081-5.081l-3.023,1.935c-0.995-0.552-2.048-0.995-3.168-1.321l-0.69-3.519h-7.186l-0.766,3.505
					c-1.117,0.322-2.173,0.759-3.173,1.309l-2.977-1.999l-5.086,5.089l1.93,3.018c-0.547,0.995-0.987,2.051-1.316,3.166
					l-3.519,0.693l0.005,7.189l3.505,0.769c0.322,1.118,0.759,2.169,1.304,3.166l-1.997,2.982l5.086,5.084l3.021-1.935
					c0.992,0.552,2.046,0.995,3.163,1.314l0.695,3.524h7.186l0.766-3.505c1.115-0.324,2.174-0.759,3.171-1.311l2.981,2.004
					l5.081-5.089l-1.935-3.018C298.248,292.469,298.687,291.418,299.014,290.301z M274.11,285.951c0-5.514,4.47-9.988,9.986-9.988
					c5.516,0,9.986,4.475,9.986,9.988c0,5.519-4.47,9.989-9.986,9.989C278.58,295.94,274.11,291.47,274.11,285.951z"/>
				<path style="fill:#FFFFFF;" d="M345.68,268.256l5.131-1.009l-0.005-10.48l-5.104-1.115c-0.466-1.631-1.105-3.168-1.906-4.622
					l2.91-4.344l-7.405-7.41l-4.411,2.822c-1.444-0.806-2.987-1.449-4.615-1.923l-1.009-5.128h-10.475l-1.117,5.108
					c-1.628,0.467-3.168,1.108-4.622,1.908l-4.342-2.918l-7.407,7.417l2.815,4.401c-0.803,1.454-1.447,2.986-1.921,4.615
					l-5.133,1.005l0.005,10.484l5.106,1.113c0.471,1.633,1.11,3.168,1.906,4.624l-2.908,4.342l7.41,7.407l4.401-2.817
					c1.447,0.801,2.989,1.444,4.615,1.916l1.012,5.133h10.475l1.118-5.108c1.628-0.471,3.17-1.105,4.622-1.908l4.349,2.92
					l7.402-7.417l-2.819-4.401C344.562,271.417,345.206,269.881,345.68,268.256z M309.383,261.914
					c0-8.038,6.518-14.557,14.554-14.557c8.038,0,14.559,6.518,14.559,14.557c0,8.041-6.521,14.557-14.559,14.557
					C315.901,276.471,309.383,269.955,309.383,261.914z"/>
			</g>
			<g style="opacity:0.2;">
				<path style="fill:#FFFFFF;" d="M206.734,189.589h-25.232c-0.802,0-1.452-0.65-1.452-1.452v-4.21c0-0.802,0.65-1.452,1.452-1.452
					h25.232c0.802,0,1.452,0.65,1.452,1.452v4.21C208.186,188.939,207.536,189.589,206.734,189.589z"/>
				<path style="fill:#FFFFFF;" d="M267.607,189.589h-55.091c-0.802,0-1.452-0.65-1.452-1.452v-4.21c0-0.802,0.65-1.452,1.452-1.452
					h55.091c0.802,0,1.452,0.65,1.452,1.452v4.21C269.059,188.939,268.409,189.589,267.607,189.589z"/>
				<path style="fill:#FFFFFF;" d="M248.65,201.843h-67.148c-0.802,0-1.452-0.65-1.452-1.452v-4.21c0-0.802,0.65-1.452,1.452-1.452
					h67.148c0.802,0,1.452,0.65,1.452,1.452v4.21C250.102,201.193,249.452,201.843,248.65,201.843z"/>
				<path style="fill:#FFFFFF;" d="M278.694,201.843h-24.263c-0.802,0-1.452-0.65-1.452-1.452v-4.21c0-0.802,0.65-1.452,1.452-1.452
					h24.263c0.802,0,1.452,0.65,1.452,1.452v4.21C280.147,201.193,279.496,201.843,278.694,201.843z"/>
				<path style="fill:#FFFFFF;" d="M225.566,214.096h-44.064c-0.802,0-1.452-0.65-1.452-1.452v-4.21c0-0.802,0.65-1.452,1.452-1.452
					h44.064c0.802,0,1.452,0.65,1.452,1.452v4.21C227.018,213.446,226.368,214.096,225.566,214.096z"/>
				<path style="fill:#FFFFFF;" d="M266.197,214.096h-34.849c-0.802,0-1.452-0.65-1.452-1.452v-4.21c0-0.802,0.65-1.452,1.452-1.452
					h34.849c0.802,0,1.452,0.65,1.452,1.452v4.21C267.649,213.446,266.999,214.096,266.197,214.096z"/>
				<path style="fill:#FFFFFF;" d="M237.748,226.35h-56.246c-0.802,0-1.452-0.65-1.452-1.452v-4.21c0-0.802,0.65-1.452,1.452-1.452
					h56.246c0.802,0,1.452,0.65,1.452,1.452v4.21C239.2,225.7,238.55,226.35,237.748,226.35z"/>
				<path style="fill:#FFFFFF;" d="M271.543,226.35h-28.013c-0.802,0-1.452-0.65-1.452-1.452v-4.21c0-0.802,0.65-1.452,1.452-1.452
					h28.013c0.802,0,1.452,0.65,1.452,1.452v4.21C272.995,225.7,272.345,226.35,271.543,226.35z"/>
				<path style="fill:#FFFFFF;" d="M224.127,238.603h-42.625c-0.802,0-1.452-0.65-1.452-1.452v-4.21c0-0.802,0.65-1.452,1.452-1.452
					h42.625c0.802,0,1.452,0.65,1.452,1.452v4.21C225.579,237.953,224.929,238.603,224.127,238.603z"/>
				<path style="fill:#FFFFFF;" d="M266.197,238.603h-36.288c-0.802,0-1.452-0.65-1.452-1.452v-4.21c0-0.802,0.65-1.452,1.452-1.452
					h36.288c0.802,0,1.452,0.65,1.452,1.452v4.21C267.649,237.953,266.999,238.603,266.197,238.603z"/>
				<path style="fill:#FFFFFF;" d="M252.13,250.857h-70.628c-0.802,0-1.452-0.65-1.452-1.452v-4.21c0-0.802,0.65-1.452,1.452-1.452
					h70.628c0.802,0,1.452,0.65,1.452,1.452v4.21C253.582,250.207,252.932,250.857,252.13,250.857z"/>
				<path style="fill:#FFFFFF;" d="M271.543,250.857h-13.631c-0.802,0-1.452-0.65-1.452-1.452v-4.21c0-0.802,0.65-1.452,1.452-1.452
					h13.631c0.802,0,1.452,0.65,1.452,1.452v4.21C272.995,250.207,272.345,250.857,271.543,250.857z"/>
				<path style="fill:#FFFFFF;" d="M220.108,263.11h-38.606c-0.802,0-1.452-0.65-1.452-1.452v-4.21c0-0.802,0.65-1.452,1.452-1.452
					h38.606c0.802,0,1.452,0.65,1.452,1.452v4.21C221.56,262.46,220.91,263.11,220.108,263.11z"/>
			</g>
			<path style="fill:#FFFFFF;" d="M142.641,263.11h26.4c2.009,0,3.637-1.628,3.637-3.637v-73.361c0-2.009-1.628-3.637-3.637-3.637
				h-26.4c-2.009,0-3.637,1.628-3.637,3.637v73.361C139.004,261.482,140.632,263.11,142.641,263.11z"/>
			<circle style="fill:#0A1D35;" cx="155.841" cy="222.792" r="11.348"/>
			<path style="fill:#EAEAEA;" d="M154.727,226.274v-7.319c0-0.299,0.361-0.449,0.573-0.237l3.66,3.66
				c0.131,0.131,0.131,0.344,0,0.475l-3.66,3.66C155.089,226.723,154.727,226.573,154.727,226.274z"/>
			<g>
				<g>
					<path style="fill:#FF6724;" d="M141.891,304.688h97.298c1.595,0,2.888-1.293,2.888-2.888v-23.797
						c0-1.595-1.293-2.887-2.888-2.887h-97.298c-1.595,0-2.887,1.293-2.887,2.887v23.797
						C139.004,303.395,140.297,304.688,141.891,304.688z"/>
				</g>
				<path style="fill:#0A1D35;" d="M159.189,299.167h-14.467c0-3.995,3.239-7.234,7.234-7.234
					C155.951,291.934,159.189,295.172,159.189,299.167z M151.956,282.476c-2.23,0-4.039,1.808-4.039,4.039s1.808,4.039,4.039,4.039
					c2.231,0,4.039-1.808,4.039-4.039S154.186,282.476,151.956,282.476z"/>
				<path style="fill:#0A1D35;" d="M195.994,286.567h-23.964c-0.802,0-1.452-0.65-1.452-1.452v-0.776
					c0-0.802,0.65-1.452,1.452-1.452h23.964c0.802,0,1.452,0.65,1.452,1.452v0.776C197.446,285.917,196.796,286.567,195.994,286.567
					z"/>
				<path style="fill:#0A1D35;" d="M210.826,291.206H171.65c-0.592,0-1.072-0.48-1.072-1.072v-0.112c0-0.592,0.48-1.072,1.072-1.072
					h39.175c0.592,0,1.072,0.48,1.072,1.072v0.112C211.898,290.726,211.418,291.206,210.826,291.206z"/>
				<path style="fill:#0A1D35;" d="M193.978,294.911H171.65c-0.592,0-1.072-0.48-1.072-1.072v-0.112c0-0.592,0.48-1.072,1.072-1.072
					h22.328c0.592,0,1.072,0.48,1.072,1.072v0.112C195.05,294.431,194.57,294.911,193.978,294.911z"/>
				<path style="fill:#0A1D35;" d="M219.901,294.911h-22.327c-0.592,0-1.072-0.48-1.072-1.072v-0.112
					c0-0.592,0.48-1.072,1.072-1.072h22.327c0.592,0,1.072,0.48,1.072,1.072v0.112C220.972,294.431,220.493,294.911,219.901,294.911
					z"/>
				<path style="fill:#0A1D35;" d="M210.826,298.616H171.65c-0.592,0-1.072-0.48-1.072-1.072v-0.112c0-0.592,0.48-1.072,1.072-1.072
					h39.175c0.592,0,1.072,0.48,1.072,1.072v0.112C211.898,298.136,211.418,298.616,210.826,298.616z"/>
				<path style="fill:#0A1D35;" d="M228.368,286.567h-27.505c-0.802,0-1.452-0.65-1.452-1.452v-0.776
					c0-0.802,0.65-1.452,1.452-1.452h27.505c0.802,0,1.452,0.65,1.452,1.452v0.776C229.82,285.917,229.17,286.567,228.368,286.567z"
					/>
			</g>
			<path style="fill:#FFAA22;" d="M302.911,219.329h45.791c3.229,0,5.847-2.618,5.847-5.847v-25.384
				c0-3.229-2.618-5.847-5.847-5.847h-45.791c-3.229,0-5.847,2.618-5.847,5.847v25.384
				C297.064,216.712,299.682,219.329,302.911,219.329z"/>
			<rect x="131.144" y="165.106" style="opacity:0.2;fill:#FFFFFF;" width="237.151" height="10.003"/>
			<path style="fill:#FFFFFF;" d="M363.234,170.107c0,0.952-0.772,1.724-1.724,1.724c-0.952,0-1.724-0.772-1.724-1.724
				c0-0.952,0.772-1.724,1.724-1.724C362.462,168.383,363.234,169.155,363.234,170.107z"/>
			<circle style="fill:#FFFFFF;" cx="356.273" cy="170.107" r="1.724"/>
			<circle style="fill:#FFFFFF;" cx="351.037" cy="170.107" r="1.724"/>
			<g>
				<path d="M310.837,202.263v-2.185l8.558-3.514v2.913l-4.315,1.694l4.315,1.73v2.858L310.837,202.263z"/>
				<path d="M327.737,194.452h2.84l-7.156,15.332h-2.84L327.737,194.452z"/>
				<path d="M332.216,205.759v-2.895l4.316-1.694l-4.316-1.73v-2.877l8.558,3.514v2.185L332.216,205.759z"/>
			</g>
		</g>
	</g>
</g>
</svg>
