<?xml version="1.0" standalone="no"?>
<!DOCTYPE svg PUBLIC "-//W3C//DTD SVG 20010904//EN"
 "http://www.w3.org/TR/2001/REC-SVG-20010904/DTD/svg10.dtd">
<svg version="1.0" xmlns="http://www.w3.org/2000/svg"
 width="900.000000pt" height="450.000000pt" viewBox="0 0 900.000000 450.000000"
 preserveAspectRatio="xMidYMid meet">
<metadata>
Created by potrace 1.10, written by Peter Selinger 2001-2011
</metadata>
<g transform="translate(0.000000,450.000000) scale(0.100000,-0.100000)"
fill="#3a5578" stroke="none">
<path d="M4430 2661 l-65 -6 4 -145 c3 -134 11 -229 27 -322 6 -36 5 -38 -19
-38 -22 0 -28 8 -46 65 -22 67 -86 205 -136 289 -15 26 -40 71 -54 100 l-26
51 -98 3 c-53 1 -97 -1 -97 -5 0 -4 -1 -165 -1 -358 l0 -350 75 -3 76 -3 -1
153 c0 157 -9 263 -28 333 -6 25 -6 44 -1 49 14 14 60 -14 60 -37 0 -10 14
-48 30 -84 17 -35 30 -66 30 -68 0 -2 13 -26 29 -53 15 -26 56 -103 91 -170
l62 -122 89 0 89 0 -2 362 c-2 231 -7 362 -13 363 -5 1 -39 -1 -75 -4z"/>
<path d="M5847 2663 c-71 -4 -78 -6 -94 -31 -9 -15 -45 -70 -78 -122 -34 -53
-66 -107 -70 -120 -8 -27 -38 -60 -54 -60 -16 0 -20 27 -11 92 5 34 10 101 12
148 l3 85 -82 3 -83 3 0 -361 0 -360 86 0 85 0 -7 113 c-7 121 0 150 45 191
27 25 40 13 71 -61 13 -32 39 -84 57 -116 19 -31 41 -73 49 -92 l14 -35 95 0
c57 0 95 4 95 10 0 6 -17 36 -39 68 -68 101 -131 201 -131 207 0 3 -18 30 -40
59 -22 29 -40 58 -40 65 0 12 90 124 188 233 76 84 73 87 -71 81z"/>
<path d="M6803 2662 c-22 -3 -71 -68 -60 -79 3 -3 53 -5 111 -4 93 2 110 -1
145 -21 66 -38 61 -83 -7 -67 -31 7 -130 12 -184 10 -20 -1 -68 -50 -68 -70 0
-11 29 -13 162 -10 187 5 193 2 133 -68 -42 -49 -78 -63 -190 -72 l-80 -6 2
-33 c1 -24 14 -47 50 -86 63 -68 153 -172 178 -206 54 -72 89 -98 140 -104 34
-4 57 -2 68 7 16 11 13 17 -36 67 -30 30 -85 91 -124 136 -38 45 -85 95 -104
112 -45 41 -33 64 37 74 88 11 153 62 178 139 10 32 14 34 63 37 44 3 56 8 78
34 38 45 29 53 -57 50 -70 -3 -77 -2 -92 19 -9 13 -16 34 -16 48 0 24 1 24 69
17 69 -6 70 -6 96 25 18 22 23 35 16 42 -10 10 -450 17 -508 9z"/>
<path d="M7492 2658 c-16 -16 -16 -109 1 -131 10 -14 18 -16 42 -8 56 18 132
22 142 9 7 -9 8 -112 4 -293 -4 -154 -4 -284 -1 -288 4 -4 42 -7 86 -5 77 3
79 4 77 28 -1 14 -5 143 -9 287 -8 307 -16 286 111 271 95 -12 102 -7 97 75
l-4 57 -253 0 c-139 0 -259 2 -267 5 -7 3 -19 0 -26 -7z"/>
<path d="M999 2653 c0 -5 0 -165 0 -358 l0 -350 223 0 223 0 2 57 c2 86 0 87
-151 77 -71 -5 -132 -6 -135 -3 -3 3 -4 136 -2 295 l3 289 -81 0 c-45 0 -81
-3 -82 -7z"/>
<path d="M1550 2653 c-1 -5 -1 -165 -1 -358 l0 -350 228 0 228 0 -1 63 c-1 35
-6 67 -10 71 -5 4 -70 4 -144 -1 -123 -8 -136 -7 -148 9 -7 10 -10 24 -7 31 3
8 5 40 5 72 0 39 4 60 14 63 7 3 66 1 130 -5 65 -5 120 -7 123 -4 9 9 13 110
5 123 -6 10 -36 11 -132 3 -69 -5 -129 -5 -133 -1 -4 4 -7 43 -5 87 l3 79 145
0 145 0 0 60 0 60 -222 3 c-123 1 -223 -1 -223 -5z"/>
<path d="M2118 2309 c-2 -193 0 -355 3 -360 3 -6 39 -9 80 -7 67 3 74 5 72 23
-1 11 -7 108 -13 215 -6 107 -13 216 -17 243 -4 42 -3 47 15 47 27 0 35 -12
76 -119 20 -52 40 -100 45 -105 5 -6 26 -42 47 -81 20 -38 51 -92 66 -120 16
-27 34 -62 41 -77 11 -27 13 -28 97 -28 l85 0 1 360 0 360 -72 0 c-49 0 -73
-4 -76 -12 -10 -33 11 -376 26 -422 17 -51 14 -86 -7 -86 -17 1 -43 40 -52 79
-6 30 -103 228 -124 256 -5 5 -28 46 -51 90 -24 44 -48 83 -54 87 -6 4 -50 8
-98 8 l-87 0 -3 -351z"/>
<path d="M2869 2653 c0 -5 -1 -167 -2 -360 l-2 -353 158 0 c117 0 167 4 194
15 19 8 46 15 58 15 12 0 28 7 35 15 7 8 17 15 22 15 30 0 138 120 138 154 0
7 7 30 15 49 30 73 10 256 -34 300 -6 6 -11 15 -11 19 0 26 -94 92 -165 117
-51 18 -83 21 -232 21 -95 0 -173 -3 -174 -7z m352 -136 c26 -14 57 -42 74
-68 26 -38 30 -55 34 -126 3 -70 0 -89 -22 -136 -38 -84 -114 -127 -223 -127
l-64 0 0 240 0 240 78 0 c63 0 88 -5 123 -23z"/>
<path d="M3619 2658 c0 -2 -1 -164 -2 -361 l-2 -358 78 3 79 3 0 355 0 355
-76 3 c-42 2 -76 2 -77 0z"/>
<path d="M4867 2640 c-101 -41 -157 -92 -199 -180 -30 -60 -32 -73 -32 -170 0
-94 3 -111 28 -162 33 -69 106 -138 173 -163 73 -28 268 -32 357 -7 l68 18 1
182 c0 100 -3 185 -6 189 -4 3 -63 7 -132 7 -148 1 -142 7 -126 -121 1 -8 20
-11 59 -10 l57 2 3 -68 c4 -87 -4 -97 -77 -97 -191 0 -302 172 -226 352 15 36
82 98 106 98 8 0 23 7 33 15 26 20 142 20 180 0 15 -8 41 -15 56 -15 26 0 30
4 41 56 12 55 12 57 -10 75 -20 17 -41 19 -165 18 -116 0 -150 -4 -189 -19z"/>
<path d="M6232 2643 c-5 -10 -14 -40 -21 -68 -7 -27 -25 -93 -41 -145 -17 -52
-37 -120 -46 -150 -43 -144 -46 -155 -84 -260 -30 -85 -33 -81 66 -78 l89 3 7
45 c15 101 21 131 30 136 5 3 54 7 108 8 97 2 98 1 114 -25 9 -15 16 -37 16
-49 0 -12 7 -43 16 -71 l16 -49 89 0 c98 0 104 5 75 58 -8 15 -29 72 -47 127
-17 55 -36 111 -42 125 -5 14 -13 41 -17 60 -9 38 -25 86 -46 138 -8 18 -14
43 -14 55 0 13 -7 32 -15 43 -8 10 -15 32 -15 47 0 62 -10 67 -125 67 -89 0
-106 -3 -113 -17z m127 -126 c5 -13 12 -46 16 -73 3 -27 15 -74 26 -105 12
-32 19 -68 17 -80 -3 -23 -7 -24 -76 -24 -41 0 -79 3 -85 7 -9 5 -6 24 10 70
11 35 27 92 33 128 18 98 40 127 59 77z"/>
</g>
</svg>
