<?xml version="1.0" standalone="no"?>
<!DOCTYPE svg PUBLIC "-//W3C//DTD SVG 20010904//EN"
 "http://www.w3.org/TR/2001/REC-SVG-20010904/DTD/svg10.dtd">
<svg version="1.0" xmlns="http://www.w3.org/2000/svg"
 width="300.000000pt" height="159.000000pt" viewBox="0 0 300.000000 159.000000"
 preserveAspectRatio="xMidYMid meet">
<metadata>
Created by potrace 1.10, written by Peter Selinger 2001-2011
</metadata>
<g transform="translate(0.000000,159.000000) scale(0.050000,-0.050000)"
fill="#1408b4" stroke="none">
<path d="M2109 1789 c-137 -68 -170 -241 -68 -357 149 -169 399 -74 399 152 0
182 -167 286 -331 205z m179 -174 c30 -48 -7 -103 -75 -111 -67 -8 -115 75
-73 126 33 40 119 31 148 -15z"/>
<path d="M3473 1807 c-7 -8 -13 -46 -13 -86 0 -72 -1 -73 -71 -65 -74 9 -149
-36 -149 -89 0 -15 -9 -27 -20 -27 -11 0 -20 13 -20 29 0 93 -193 122 -259 38
-118 -150 47 -333 217 -239 60 33 25 61 -76 62 -38 0 -72 11 -77 25 -21 63
212 30 245 -35 33 -63 68 -76 205 -75 l85 0 0 238 c0 231 -14 277 -67 224z
m-385 -219 c53 -20 36 -48 -28 -48 -60 0 -81 28 -35 47 14 5 27 11 28 11 2 1
18 -3 35 -10z m373 -50 c32 -59 -11 -122 -77 -114 -43 5 -55 18 -61 65 -11
102 90 138 138 49z"/>
<path d="M2613 1763 c-74 -82 -31 -181 98 -223 56 -19 70 -33 65 -67 -6 -45
-57 -53 -148 -23 -71 22 -78 -44 -8 -80 80 -41 145 -38 207 11 101 80 63 182
-92 246 -80 33 -91 55 -47 91 21 18 40 17 80 -1 67 -30 114 3 73 52 -37 45
-186 41 -228 -6z"/>
<path d="M3600 1762 c0 -48 50 -68 80 -32 30 36 9 70 -41 70 -25 0 -39 -14
-39 -38z"/>
<path d="M3600 1500 c0 -147 3 -160 40 -160 37 0 40 13 40 160 0 147 -3 160
-40 160 -37 0 -40 -13 -40 -160z"/>
<path d="M3740 1497 c0 -144 3 -157 40 -157 35 0 40 13 40 99 0 90 34 161 77
161 39 0 63 -58 63 -154 0 -93 5 -106 40 -106 36 0 40 13 40 121 0 181 -15
198 -170 195 l-130 -2 0 -157z"/>
</g>
</svg>
