<svg xmlns="http://www.w3.org/2000/svg" version="1.0" width="300.000000pt" height="300.000000pt" viewBox="0 0 300.000000 300.000000" preserveAspectRatio="xMidYMid meet">  <g transform="translate(0.000000,300.000000) scale(0.050000,-0.050000)" fill="#eb1212" stroke="none"> <path d="M2680 5977 c-2057 -214 -3281 -2452 -2355 -4307 997 -1997 3754 -2241 5079 -450 1543 2087 -140 5025 -2724 4757z m960 -103 c2186 -518 3038 -3123 1573 -4811 -1363 -1571 -3915 -1240 -4842 627 -906 1823 231 3938 2279 4238 185 27 785 -6 990 -54z" fill="#39d353"/> <path d="M2893 5767 c-37 -37 -9 -120 57 -173 106 -84 62 -198 -47 -122 -46 32 -59 12 -19 -28 68 -68 197 19 153 103 -12 22 -48 62 -80 88 -81 69 -60 157 25 103 44 -28 65 -21 38 12 -25 31 -103 41 -127 17z" fill="#39d353"/> <path d="M2624 5736 c-44 -44 -25 -95 56 -148 113 -75 91 -202 -23 -131 -30 19 -37 18 -37 -5 0 -16 18 -35 40 -42 119 -38 186 85 88 163 -134 106 -135 108 -101 142 26 26 36 27 62 5 18 -14 38 -19 46 -12 17 17 -33 51 -76 52 -17 0 -42 -11 -55 -24z" fill="#39d353"/> <path d="M3136 5595 c-8 -156 -6 -193 11 -173 19 21 34 338 16 338 -10 0 -23 -74 -27 -165z" fill="#39d353"/> <path d="M3309 5691 c-74 -74 -68 -191 13 -259 173 -147 400 89 240 250 -77 76 -182 80 -253 9z m218 -12 c66 -52 73 -159 13 -219 -60 -60 -167 -53 -219 13 -112 143 63 318 206 206z" fill="#39d353"/> <path d="M2400 5706 c-27 -5 -57 -16 -65 -24 -13 -12 37 -296 56 -319 12 -13 189 23 189 39 0 9 -29 12 -65 5 -36 -7 -73 -13 -83 -15 -9 -1 -25 25 -34 57 -19 66 2 90 76 91 24 0 49 9 56 21 8 13 -18 18 -73 15 -117 -8 -134 83 -21 106 129 26 97 47 -36 24z" fill="#39d353"/> <path d="M2130 5636 c-33 -12 -62 -23 -65 -25 -2 -2 22 -80 55 -172 34 -93 57 -142 52 -109 -5 33 -15 75 -22 93 -10 25 2 36 48 47 34 7 67 21 73 32 15 23 -15 23 -80 -2 -46 -17 -54 -13 -72 32 -25 67 -27 63 41 78 33 7 60 21 60 32 0 22 -12 21 -90 -6z" fill="#39d353"/> <path d="M3712 5506 c-28 -84 -47 -157 -42 -163 15 -15 21 -2 63 125 l39 119 68 -165 69 -165 43 130 c70 206 72 213 53 213 -10 0 -34 -55 -53 -123 -39 -140 -45 -138 -122 48 -68 164 -56 166 -118 -19z" fill="#39d353"/> <path d="M1790 5502 c-124 -53 -157 -204 -65 -297 112 -111 303 -32 303 125 0 118 -134 215 -238 172z m161 -71 c90 -90 25 -251 -101 -251 -67 0 -150 83 -150 150 0 67 83 150 150 150 29 0 74 -22 101 -49z" fill="#39d353"/> <path d="M4120 5358 c-71 -56 -133 -111 -138 -123 -8 -23 29 -5 81 39 59 51 177 -23 177 -111 0 -121 14 -60 28 122 16 205 20 203 -148 73z m120 -18 c0 -62 -26 -75 -80 -39 -26 17 -23 26 17 59 61 52 63 51 63 -20z" fill="#39d353"/> <path d="M4401 5198 l-88 -143 49 -37 c26 -20 62 -37 78 -37 23 0 21 7 -9 30 -21 16 -46 29 -55 29 -27 0 -18 41 20 97 77 111 127 203 110 203 -9 0 -56 -64 -105 -142z" fill="#39d353"/> <path d="M1396 5259 l-54 -41 90 -128 c86 -123 128 -168 128 -139 0 7 -19 39 -42 72 -55 77 -45 83 74 47 117 -35 108 -35 108 -10 0 11 -13 20 -29 20 -66 0 -138 41 -114 65 98 98 -45 200 -161 114z m142 -6 c29 -35 9 -88 -44 -116 -33 -18 -46 -15 -67 14 -38 52 -33 80 18 105 60 29 66 28 93 -3z" fill="#39d353"/> <path d="M2670 5238 c-1824 -263 -2568 -2519 -1262 -3830 1300 -1305 3527 -583 3822 1239 242 1494 -1055 2808 -2560 2591z m644 -60 c86 -12 159 -24 162 -28 11 -11 -2085 -3646 -2098 -3638 -7 4 -49 55 -94 113 l-83 107 430 1589 c237 874 436 1610 442 1636 40 156 771 287 1241 221z m1192 -576 c172 -162 338 -381 449 -595 l84 -162 -1691 -1294 -1690 -1294 -89 73 c-54 44 -84 82 -75 97 22 35 2606 3337 2651 3387 l40 44 90 -61 c49 -34 153 -122 231 -195z m-3167 -682 c-42 -324 -113 -882 -158 -1240 -103 -819 -93 -774 -151 -660 -392 770 -253 1818 326 2445 68 73 69 119 -17 -545z m3833 -1260 c-38 -241 -112 -464 -226 -682 -153 -292 1 -228 -1520 -629 l-1344 -354 -146 81 c-80 44 -145 87 -144 97 1 16 450 274 2458 1413 l940 533 6 -134 c3 -74 -7 -220 -24 -325z m-1222 -1644 c-361 -191 -972 -265 -1400 -170 l-120 27 200 25 c110 13 439 55 730 91 292 37 562 67 600 68 l70 1 -80 -42z" fill="#39d353"/> <path d="M1160 5065 l-61 -55 103 -125 c106 -129 180 -177 89 -58 l-51 66 50 47 c122 114 -6 237 -130 125z m136 -36 c11 -79 -72 -127 -117 -68 -38 48 -38 49 5 85 53 44 104 37 112 -17z" fill="#39d353"/> <path d="M5025 4668 c-58 -51 -105 -107 -105 -125 0 -56 59 -123 109 -123 50 0 251 146 251 182 0 12 -43 -14 -95 -57 -128 -106 -138 -110 -185 -85 -72 38 -50 109 59 194 93 71 122 107 86 106 -8 -1 -62 -42 -120 -92z" fill="#39d353"/> <path d="M5214 4377 c-162 -96 -166 -130 -5 -39 61 34 111 59 111 56 0 -4 -22 -73 -50 -154 -27 -81 -46 -150 -42 -155 13 -12 272 141 272 161 0 9 -48 -11 -107 -45 -60 -33 -113 -61 -120 -61 -7 0 15 72 47 160 68 185 71 183 -106 77z" fill="#39d353"/> <path d="M541 4300 c0 -16 17 -52 39 -80 52 -67 50 -80 -15 -81 -30 -1 -73 -10 -95 -21 -29 -13 -9 -16 67 -9 74 7 126 0 167 -21 32 -17 69 -27 82 -22 13 4 -10 25 -52 47 -41 21 -102 79 -135 128 -32 49 -59 76 -58 59z" fill="#39d353"/> <path d="M5401 4057 c-140 -64 -153 -72 -138 -87 11 -11 297 123 297 139 0 18 -25 10 -159 -52z" fill="#39d353"/> <path d="M5460 3882 l-130 -118 110 -13 c61 -8 146 -11 190 -7 67 6 57 10 -65 24 -173 20 -170 11 -40 133 58 53 96 98 85 98 -11 0 -78 -53 -150 -117z" fill="#39d353"/> <path d="M686 3860 l-23 -61 -134 51 c-73 27 -143 50 -155 50 -46 0 20 -36 162 -87 l145 -53 20 55 c11 30 24 66 29 80 19 55 -23 21 -44 -35z" fill="#39d353"/> <path d="M306 3705 c-8 -41 -15 -83 -16 -93 0 -18 231 -90 293 -91 19 -1 38 21 46 54 7 30 18 71 23 90 6 19 2 35 -8 35 -11 0 -25 -31 -33 -70 -24 -129 -162 -88 -142 42 11 76 -7 57 -37 -37 -31 -98 -122 -26 -95 75 11 38 12 70 2 70 -9 0 -24 -34 -33 -75z" fill="#39d353"/> <path d="M5545 3585 l-145 -30 13 -82 c7 -46 21 -92 31 -103 12 -13 14 14 5 75 -10 74 -7 95 14 95 15 0 47 6 72 13 37 10 45 3 46 -36 1 -26 10 -65 20 -87 14 -30 17 -18 14 50 -7 133 93 150 115 20 19 -112 38 -85 21 29 -8 52 -24 90 -37 89 -13 -1 -89 -16 -169 -33z" fill="#39d353"/> <path d="M260 3465 c0 -9 50 -45 110 -82 122 -73 125 -92 18 -112 -93 -17 -176 -49 -163 -62 9 -9 315 66 332 82 7 7 -270 189 -287 189 -6 0 -10 -7 -10 -15z" fill="#39d353"/> <path d="M5525 3305 c-47 -4 -85 -16 -85 -26 0 -11 34 -14 80 -7 100 16 103 -8 8 -91 -40 -35 -67 -69 -60 -76 7 -7 39 14 72 45 33 31 62 53 65 49 3 -5 15 -27 27 -49 57 -104 181 -19 156 107 -14 68 -23 70 -263 48z m232 -98 c-6 -46 -17 -57 -57 -57 -72 0 -87 123 -16 134 62 11 80 -8 73 -77z" fill="#39d353"/> <path d="M307 3071 c-149 -65 -146 -260 5 -323 59 -25 77 -25 136 0 153 64 154 260 1 324 -80 33 -64 33 -142 -1z m152 -30 c64 -35 89 -128 52 -199 -85 -164 -341 -50 -270 121 38 90 131 124 218 78z" fill="#39d353"/> <path d="M5461 2981 c-71 -132 80 -186 188 -68 44 48 78 69 99 61 36 -14 43 -65 12 -84 -11 -7 -20 -22 -20 -34 0 -13 12 -11 31 5 17 14 28 49 25 77 -10 84 -86 80 -178 -9 -64 -64 -81 -71 -107 -50 -41 34 -39 94 4 119 33 19 33 21 1 21 -19 1 -44 -16 -55 -38z" fill="#39d353"/> <path d="M5490 2740 c33 -8 119 -15 190 -15 120 0 124 1 50 16 -107 22 -327 21 -240 -1z" fill="#39d353"/> <path d="M551 2612 l13 -68 -127 -14 c-70 -8 -140 -22 -157 -32 -41 -23 -10 -22 165 4 l146 21 -8 79 c-4 43 -16 78 -26 78 -11 0 -13 -30 -6 -68z" fill="#39d353"/> <path d="M5745 2589 c-17 -30 -33 -31 -163 -9 -80 13 -150 19 -156 13 -11 -11 9 -17 197 -53 97 -19 111 -27 103 -61 -6 -21 -2 -39 9 -39 18 0 51 161 36 176 -4 4 -16 -8 -26 -27z" fill="#39d353"/> <path d="M5630 2347 c-64 -23 -95 -25 -157 -7 -42 13 -82 18 -88 12 -12 -12 83 -52 125 -52 15 0 59 -38 98 -85 43 -51 71 -72 72 -53 0 17 -22 52 -49 77 -60 56 -53 72 39 90 38 7 70 21 70 32 0 24 -12 23 -110 -14z" fill="#39d353"/> <path d="M720 1599 c-51 -95 62 -199 140 -129 45 41 52 110 16 146 -39 39 -132 29 -156 -17z" fill="#39d353"/> <path d="M5104 1616 c-13 -13 -24 -49 -24 -79 0 -100 133 -125 181 -34 46 86 -88 182 -157 113z" fill="#39d353"/> <path d="M1225 1096 c-57 -68 -99 -129 -93 -135 7 -6 33 15 58 47 46 57 48 58 98 25 139 -91 238 24 117 136 -71 66 -61 70 -180 -73z m174 35 c39 -41 43 -55 21 -80 -56 -69 -164 11 -117 87 34 53 40 53 96 -7z" fill="#39d353"/> <path d="M4440 1049 c0 -7 45 -62 100 -122 54 -60 110 -144 122 -187 13 -43 32 -74 41 -68 21 13 -30 136 -97 234 -50 72 -166 172 -166 143z" fill="#39d353"/> <path d="M1472 937 c-81 -119 -89 -175 -35 -224 77 -70 161 -18 269 166 63 106 3 66 -74 -50 -85 -129 -119 -147 -173 -98 -53 48 -50 63 33 186 39 58 67 111 61 116 -5 6 -42 -38 -81 -96z" fill="#39d353"/> <path d="M4255 786 c5 -64 16 -147 25 -186 l16 -70 2 73 c3 111 104 173 186 114 31 -22 56 -30 56 -19 0 20 -209 171 -266 193 -22 9 -26 -13 -19 -105z m96 21 l50 -32 -43 -30 c-47 -33 -77 -10 -78 60 0 43 8 44 71 2z" fill="#39d353"/> <path d="M1731 743 c-39 -78 -71 -148 -71 -155 0 -32 57 39 90 112 49 109 57 103 98 -70 19 -82 38 -150 42 -150 17 0 151 267 144 287 -4 13 -35 -31 -69 -97 -68 -132 -68 -131 -113 67 -39 169 -39 169 -121 6z" fill="#39d353"/> <path d="M4040 805 c0 -32 128 -305 144 -305 23 0 23 -1 -55 167 -64 140 -89 178 -89 138z" fill="#39d353"/> <path d="M3830 725 c-22 -5 -60 -17 -84 -27 l-44 -16 55 -150 c68 -186 61 -180 161 -140 206 82 126 386 -88 333z m141 -74 c86 -87 34 -221 -91 -235 -43 -5 -54 9 -94 120 l-45 126 44 17 c78 32 135 23 186 -28z" fill="#39d353"/> <path d="M2204 679 c-11 -28 -31 -89 -45 -135 -32 -105 -67 -139 -109 -104 -17 14 -37 19 -45 12 -22 -22 40 -53 93 -47 41 4 56 27 95 144 45 134 54 237 11 130z" fill="#39d353"/> <path d="M3631 535 c33 -156 40 -153 -112 -36 -70 55 -131 96 -135 92 -10 -10 39 -256 58 -291 23 -42 23 26 -1 129 -25 109 -21 109 119 1 67 -52 127 -90 132 -85 13 14 -56 315 -73 315 -8 0 -2 -56 12 -125z" fill="#39d353"/> <path d="M2336 493 c-63 -78 -109 -146 -103 -152 6 -6 31 14 56 45 67 84 211 44 211 -58 0 -27 10 -48 21 -48 12 0 17 16 11 35 -5 19 -20 93 -34 165 -32 175 -32 175 -162 13z m130 12 c13 -69 9 -73 -55 -52 -49 16 -50 19 -20 62 41 60 62 57 75 -10z" fill="#39d353"/> <path d="M2674 572 c-6 -15 -17 -92 -25 -170 l-14 -142 78 0 c88 0 127 28 127 90 0 23 -11 53 -24 66 -19 19 -19 29 0 48 13 13 24 40 24 59 0 65 -144 107 -166 49z m109 -12 c52 0 4 -90 -51 -97 -47 -5 -55 0 -45 27 7 18 13 47 13 64 0 19 11 26 32 18 17 -7 40 -12 51 -12z m18 -172 c34 -41 3 -95 -60 -105 -61 -9 -80 15 -67 82 12 63 83 76 127 23z" fill="#39d353"/> <path d="M3128 528 c-19 -101 2 -346 32 -374 20 -19 23 -14 13 26 -29 110 -37 274 -17 345 11 41 13 75 3 75 -9 0 -23 -32 -31 -72z" fill="#39d353"/> <path d="M3285 490 c0 -66 7 -147 15 -180 12 -47 15 -34 15 60 0 66 -7 147 -15 180 -12 47 -15 34 -15 -60z" fill="#39d353"/> </g> </svg>